C:\OpenCap\opencap-processing\Data\f695a51c-2aed-4feb-b28d-2290ed51e9ec\OpenSimData\Dynamics\Javelin50\GRF_resultant_Javelin50_0.mot
version=1
nRows=19
nColumns=19
inDegrees=yes
endheader 
time	ground_force_right_vx	ground_force_right_vy	ground_force_right_vz	ground_force_right_px	ground_force_right_py	ground_force_right_pz	ground_torque_right_x	ground_torque_right_y	ground_torque_right_z	ground_force_left_vx	ground_force_left_vy	ground_force_left_vz	ground_force_left_px	ground_force_left_py	ground_force_left_pz	ground_torque_left_x	ground_torque_left_y	ground_torque_left_z	
          2.40000000	         -0.00000000	         -0.00000000	         -0.00000000	          0.00000000	          0.00000000	          0.00000000	          0.00000000	          0.00000000	          0.00000000	        -86.91034776	         29.29265817	         22.78596410	         -3.92958427	          0.00000000	         -0.05064164	          0.00000000	         -0.08435221	          0.00000000	
          2.41000000	       -167.40949132	        634.76648181	         20.32015780	         -3.32084190	          0.00000000	          0.00684974	          0.00000000	         17.08247588	          0.00000000	         -7.43476137	          2.10349118	          2.05125619	         -3.88183522	          0.00000000	         -0.07825519	          0.00000000	          0.00000002	          0.00000000	
          2.42000000	       -147.70798664	        776.96940571	         32.05354429	         -3.32594307	          0.00000000	          0.00409607	          0.00000000	         19.89439432	          0.00000000	         33.10100195	         -7.86992509	         -8.35577306	          0.00000000	          0.00000000	          0.00000000	          0.00000000	        -35.11527506	          0.00000000	
          2.43000000	       -139.95086748	        833.44297961	         28.24650909	         -3.32682056	          0.00000000	          0.00295459	          0.00000000	         16.40763311	          0.00000000	         33.84640297	         -7.51714163	         -7.47708171	          0.00000000	          0.00000000	          0.00000000	          0.00000000	        -31.96700155	          0.00000000	
          2.44000000	       -111.63444415	        822.39763856	         24.53380724	         -3.32517623	          0.00000000	          0.00270006	          0.00000000	         12.23434167	          0.00000000	         31.46726284	         -6.78663831	         -6.24658639	          0.00000000	          0.00000000	          0.00000000	          0.00000000	        -27.17061151	          0.00000000	
          2.45000000	       -118.57943383	        913.71189874	         -8.07699661	         -3.32349798	          0.00000000	          0.00221024	          0.00000000	         10.18515713	          0.00000000	         28.58631506	         -6.03453781	         -5.22243342	          0.00000000	          0.00000000	          0.00000000	          0.00000000	        -23.08237270	          0.00000000	
          2.46000000	          5.25540371	        780.13436483	         37.40938850	         -3.32076510	          0.00000000	          0.00271383	          0.00000000	          9.00151642	          0.00000000	         25.89103991	         -5.31259903	         -4.24959718	          0.00000000	          0.00000000	          0.00000000	          0.00000000	        -19.24323894	          0.00000000	
          2.47000000	       -432.65830274	       1064.47551718	       -189.56250109	         -3.32370424	          0.00000000	          0.00041799	          0.00000000	          8.29848259	          0.00000000	         22.71236899	         -4.60685245	         -3.33203263	          0.00000000	          0.00000000	          0.00000000	          0.00000000	        -15.54225772	          0.00000000	
          2.48000000	        281.08307114	        288.78836324	        181.96455901	         -3.29216714	          0.00000000	          0.01771564	          0.00000000	          1.47379643	          0.00000000	         17.54732921	         -3.54091005	         -2.29672610	          0.00000000	          0.00000000	          0.00000000	          0.00000000	        -11.09496232	          0.00000000	
          2.49000000	        -87.53537027	       1102.08539360	        -42.67646692	         -3.32488592	          0.00000000	         -0.00278624	          0.00000000	         12.03776255	          0.00000000	         -4.35640044	          0.89664584	          0.60284931	         -3.23215327	          0.00000000	         -0.20419933	          0.00000000	          0.00000004	          0.00000000	
          2.50000000	         54.98804062	       1200.37938003	         38.46229671	         -3.32527418	          0.00000000	         -0.00361465	          0.00000000	         10.77221564	          0.00000000	        -17.04189732	          3.52539633	          2.21399803	         -3.16379946	          0.00000000	         -0.21317981	          0.00000000	         -0.00000000	          0.00000000	
          2.51000000	        152.33017121	       1402.16758604	         10.83607757	         -3.32284974	          0.00000000	         -0.00378633	          0.00000000	          1.94716689	          0.00000000	        -36.58123548	          7.68097938	          4.17189080	         -3.09411973	          0.00000000	         -0.22146172	          0.00000000	         -0.00000004	          0.00000000	
          2.52000000	        228.74410563	       1446.14301911	         43.10928469	         -3.31891745	          0.00000000	         -0.00225871	          0.00000000	         -0.26472852	          0.00000000	        -55.22723855	         11.85199178	          5.38682275	         -3.02377306	          0.00000000	         -0.22884469	          0.00000000	         -0.00000112	          0.00000000	
          2.53000000	        268.06846891	       1430.75752504	         47.63272793	         -3.31276786	          0.00000000	          0.00041083	          0.00000000	         -1.99033378	          0.00000000	        -66.72074582	         14.73213061	          5.72806986	         -2.95299391	          0.00000000	         -0.23533551	          0.00000000	         -0.00000028	          0.00000000	
          2.54000000	        262.29453280	       1309.23837104	         44.53823519	         -3.30303917	          0.00000000	          0.00522838	          0.00000000	         -3.85162566	          0.00000000	        -67.03226840	         15.43182456	          4.79001078	         -2.88304019	          0.00000000	         -0.24084552	          0.00000000	         -0.00000110	          0.00000000	
          2.55000000	        187.90863899	       1116.95242911	         20.63141699	         -3.28928994	          0.00000000	          0.01232395	          0.00000000	         -3.74256727	          0.00000000	        -55.46723642	         13.43713964	          2.57697172	         -2.81582522	          0.00000000	         -0.24502666	          0.00000000	          0.00065461	          0.00000000	
          2.56000000	        113.01245569	        877.45843951	         10.94675171	         -3.27927482	          0.00000000	          0.01724485	          0.00000000	          0.00001621	          0.00000000	        -45.30663813	         11.64932335	          0.68804022	         -2.75262483	          0.00000000	         -0.24848428	          0.00000000	          0.02628122	          0.00000000	
          2.57000000	        106.06810787	        734.38447632	          8.30311511	         -3.27826636	          0.00000000	          0.01710682	          0.00000000	         -0.00000001	          0.00000000	        -49.56105520	         13.58567672	          0.40750428	         -2.70456209	          0.00000000	         -0.25430734	          0.00000000	          0.13585201	          0.00000000	
          2.58000000	        127.58113361	        627.42149002	          2.47866609	         -3.27640990	          0.00000000	          0.01710148	          0.00000000	         -0.00000001	          0.00000000	        -69.60880134	         20.50985101	          0.60032924	         -2.66020669	          0.00000000	         -0.25878415	          0.00000000	          0.31008653	          0.00000000	
